<?xml version="1.0" standalone="no"?><!DOCTYPE svg PUBLIC "-//W3C//DTD SVG 1.1//EN" "http://www.w3.org/Graphics/SVG/1.1/DTD/svg11.dtd"><svg t="1532598748347" class="icon" style="" viewBox="0 0 1024 1024" version="1.1" xmlns="http://www.w3.org/2000/svg" p-id="73229" xmlns:xlink="http://www.w3.org/1999/xlink" width="200" height="200"><defs><style type="text/css"></style></defs><path d="M148.178824 477.063529h193.957647a30.117647 30.117647 0 0 0 30.117647-30.117647V188.536471a30.117647 30.117647 0 0 0-30.117647-30.117647H148.178824a30.117647 30.117647 0 0 0-30.117648 30.117647v259.011764a30.117647 30.117647 0 0 0 30.117648 29.515294zM180.705882 218.654118h131.312942v198.77647H180.705882zM477.665882 227.689412h169.86353a30.117647 30.117647 0 0 0 0-60.235294H477.665882a30.117647 30.117647 0 0 0 0 60.235294zM477.665882 357.195294h169.86353a30.117647 30.117647 0 0 0 0-60.235294H477.665882a30.117647 30.117647 0 0 0 0 60.235294zM466.221176 546.334118H148.178824a30.117647 30.117647 0 0 0 0 60.235294h318.042352a30.117647 30.117647 0 0 0 0-60.235294zM466.221176 675.84H148.178824a30.117647 30.117647 0 0 0 0 60.235294h318.042352a30.117647 30.117647 0 0 0 0-60.235294zM466.221176 805.345882H148.178824a30.117647 30.117647 0 0 0 0 60.235294h318.042352a30.117647 30.117647 0 0 0 0-60.235294z" p-id="73230" fill="#d1ae69"></path><path d="M1024 725.835294a244.555294 244.555294 0 0 0-228.291765-240.941176V30.117647a30.117647 30.117647 0 0 0-30.117647-30.117647H30.117647a30.117647 30.117647 0 0 0-30.117647 30.117647v963.764706a30.117647 30.117647 0 0 0 30.117647 30.117647h735.472941a30.117647 30.117647 0 0 0 30.117647-30.117647v-25.298824A244.555294 244.555294 0 0 0 1024 725.835294zM60.235294 60.235294h675.237647v425.86353A240.941176 240.941176 0 0 0 722.823529 963.764706H60.235294z m718.004706 849.92a183.717647 183.717647 0 1 1 154.804706-284.310588 29.515294 29.515294 0 0 0-41.562353 0l-156.611765 136.734118-66.258823-83.124706a30.117647 30.117647 0 0 0-46.98353 37.345882l86.136471 107.821176a30.117647 30.117647 0 0 0 21.082353 11.444706 29.515294 29.515294 0 0 0 19.877647-7.830588l180.705882-160.225882a30.117647 30.117647 0 0 0 9.035294-30.117647 180.705882 180.705882 0 0 1 25.298824 87.943529 184.922353 184.922353 0 0 1-185.524706 184.32z" p-id="73231" fill="#d1ae69"></path></svg>