<?xml version="1.0" standalone="no"?><!DOCTYPE svg PUBLIC "-//W3C//DTD SVG 1.1//EN" "http://www.w3.org/Graphics/SVG/1.1/DTD/svg11.dtd"><svg t="1532597805215" class="icon" style="" viewBox="0 0 1024 1024" version="1.1" xmlns="http://www.w3.org/2000/svg" p-id="56206" xmlns:xlink="http://www.w3.org/1999/xlink" width="200" height="200"><defs><style type="text/css"></style></defs><path d="M911.911385 1024H112.088615A112.246154 112.246154 0 0 1 0 911.911385V112.088615C0 50.254769 50.254769 0 112.088615 0h799.82277a39.384615 39.384615 0 0 1 0 78.769231H112.088615A33.319385 33.319385 0 0 0 78.769231 112.088615v799.82277c0 18.432 14.887385 33.319385 33.319384 33.319384h799.82277a33.319385 33.319385 0 0 0 33.319384-33.319384V468.992a39.384615 39.384615 0 0 1 78.769231 0v442.919385c0 61.755077-50.333538 112.088615-112.088615 112.088615z" fill="#808080" p-id="56207"></path><path d="M984.615385 157.774769a39.542154 39.542154 0 0 0-27.884308 11.500308L455.443692 670.562462a39.384615 39.384615 0 0 0 55.768616 55.768615l501.287384-501.287385a39.384615 39.384615 0 0 0-27.884307-67.268923z" fill="#808080" p-id="56208"></path><path d="M262.774154 436.224a39.384615 39.384615 0 0 0-27.884308 67.190154L457.728 726.252308a39.227077 39.227077 0 0 0 55.689846 0 39.384615 39.384615 0 0 0 0-55.689846L290.579692 447.803077a38.990769 38.990769 0 0 0-27.805538-11.579077z" fill="#808080" p-id="56209"></path></svg>