<?xml version="1.0" standalone="no"?><!DOCTYPE svg PUBLIC "-//W3C//DTD SVG 1.1//EN" "http://www.w3.org/Graphics/SVG/1.1/DTD/svg11.dtd"><svg t="1532569055390" class="icon" style="" viewBox="0 0 1024 1024" version="1.1" xmlns="http://www.w3.org/2000/svg" p-id="20707" xmlns:xlink="http://www.w3.org/1999/xlink" width="200" height="200"><defs><style type="text/css"></style></defs><path d="M512 944C273.6 944 80 750.4 80 512S273.6 80 512 80s432 193.6 432 432-193.6 432-432 432z m0-800C308.8 144 144 308.8 144 512s164.8 368 368 368 368-164.8 368-368S715.2 144 512 144z" fill="#808080" p-id="20708"></path><path d="M672 550.4h-128v-64h128c17.6 0 32-14.4 32-32s-14.4-32-32-32h-89.6l88-88c12.8-12.8 12.8-32 0-44.8-12.8-12.8-32-12.8-44.8 0L512 403.2l-113.6-113.6c-12.8-12.8-32-12.8-44.8 0-12.8 12.8-12.8 32 0 44.8l88 88H352c-17.6 0-32 14.4-32 32s14.4 32 32 32h128v64h-128c-17.6 0-32 14.4-32 32s14.4 32 32 32h128v128c0 17.6 14.4 32 32 32s32-14.4 32-32v-128h128c17.6 0 32-14.4 32-32s-14.4-32-32-32z" fill="#808080" p-id="20709"></path></svg>