<?xml version="1.0" standalone="no"?><!DOCTYPE svg PUBLIC "-//W3C//DTD SVG 1.1//EN" "http://www.w3.org/Graphics/SVG/1.1/DTD/svg11.dtd"><svg t="1532596429278" class="icon" style="" viewBox="0 0 1024 1024" version="1.1" xmlns="http://www.w3.org/2000/svg" p-id="32289" xmlns:xlink="http://www.w3.org/1999/xlink" width="200" height="200"><defs><style type="text/css"></style></defs><path d="M870.4 977.066667H153.6c-53.333333 0-96-38.4-96-87.466667V211.2c0-49.066667 42.666667-87.466667 96-87.466667h160v53.333334H153.6c-23.466667 0-42.666667 14.933333-42.666667 34.133333v678.4c0 19.2 19.2 34.133333 42.666667 34.133333h716.8c23.466667 0 42.666667-14.933333 42.666667-34.133333V211.2c0-19.2-19.2-34.133333-42.666667-34.133333h-153.6V125.866667h153.6c53.333333 0 96 38.4 96 87.466666v678.4c0 46.933333-42.666667 85.333333-96 85.333334z" fill="#808080" p-id="32290"></path><path d="M445.866667 716.8c-6.4 0-12.8-2.133333-19.2-8.533333l-136.533334-136.533334 38.4-38.4 117.333334 117.333334L733.866667 362.666667l38.4 38.4-307.2 307.2c-6.4 6.4-12.8 8.533333-19.2 8.533333zM714.666667 256h-405.333334c-14.933333 0-25.6-12.8-25.6-25.6V74.666667c0-14.933333 12.8-25.6 25.6-25.6h405.333334c14.933333 0 25.6 12.8 25.6 25.6v153.6c0 14.933333-10.666667 27.733333-25.6 27.733333zM337.066667 202.666667h352V100.266667H337.066667v102.4z" fill="#808080" p-id="32291"></path></svg>