<?xml version="1.0" standalone="no"?><!DOCTYPE svg PUBLIC "-//W3C//DTD SVG 1.1//EN" "http://www.w3.org/Graphics/SVG/1.1/DTD/svg11.dtd"><svg t="1532598647650" class="icon" style="" viewBox="0 0 1024 1024" version="1.1" xmlns="http://www.w3.org/2000/svg" p-id="71167" xmlns:xlink="http://www.w3.org/1999/xlink" width="200" height="200"><defs><style type="text/css"></style></defs><path d="M731.008 1.109333 292.970667 1.109333c-97.002667 0-175.936 78.912-175.936 175.936l0 669.952c0 96.981333 78.933333 175.872 175.936 175.872l438.016 0c97.002667 0 175.914667-78.890667 175.914667-175.872L906.901333 177.045333C906.922667 80.021333 827.989333 1.109333 731.008 1.109333zM864.256 210.922667l0 547.818667L159.701333 758.741333 159.701333 210.922667 864.256 210.922667zM292.970667 43.776l438.016 0c70.528 0 128.256 55.104 132.821333 124.48L160.149333 168.256C164.714667 98.88 222.464 43.776 292.970667 43.776zM731.008 980.202667 292.970667 980.202667c-73.493333 0-133.269333-59.754667-133.269333-133.205333l0-45.589333 704.533333 0 0 45.589333C864.256 920.448 804.48 980.202667 731.008 980.202667z" p-id="71168" fill="#808080"></path><path d="M512 898.602667m-51.52 0a2.415 2.415 0 1 0 103.04 0 2.415 2.415 0 1 0-103.04 0Z" p-id="71169" fill="#808080"></path></svg>