<?xml version="1.0" standalone="no"?><!DOCTYPE svg PUBLIC "-//W3C//DTD SVG 1.1//EN" "http://www.w3.org/Graphics/SVG/1.1/DTD/svg11.dtd"><svg t="1532597311110" class="icon" style="" viewBox="0 0 1024 1024" version="1.1" xmlns="http://www.w3.org/2000/svg" p-id="47365" xmlns:xlink="http://www.w3.org/1999/xlink" width="200" height="200"><defs><style type="text/css"></style></defs><path d="M337.076 237.542l45.274-28.811c8.232-8.232 24.696-4.116 28.811 4.116l82.316 119.36-4.116 16.463-45.275 37.042c-49.39 37.043 82.316 222.256 135.823 193.446l49.39-32.927h16.463l82.316 115.244c8.232 8.232 4.116 20.58-4.116 28.811-4.116 4.116 0 8.232 4.116 8.232 28.811 16.463 28.811 53.506 32.927 74.086 4.116 41.158-20.58 74.085-65.854 98.781-57.622 24.696-119.36 41.158-185.213 41.158-230.488 0-419.816-189.33-419.816-423.934 0-230.488 189.33-419.816 419.816-419.816v0c234.604 0 423.934 189.33 423.934 419.816 0 94.664-32.927 181.097-82.316 251.066-20.58 24.696-53.506 4.116-28.811-32.927 45.274-61.738 69.969-135.823 69.969-218.14 0-209.908-172.866-378.658-382.775-378.658-209.908 0-378.658 168.75-378.658 378.658 0 209.908 168.75 382.775 378.658 382.775 57.622 0 107.012-12.347 152.288-32.927 32.927-16.462 57.622-45.274 49.39-65.854-4.116-20.58-24.696-53.506-41.158-49.39-49.39 12.347-160.518 32.927-288.11-148.17-156.403-209.908-65.854-316.92-45.275-337.5z" p-id="47366" fill="#d1ae69"></path></svg>